<svg xmlns="http://www.w3.org/2000/svg" viewBox="0 0 3917.19 2082.34"><defs><style>.cls-1{fill:#dbe5e5;}.cls-2{fill:#ffdb00;}.cls-3{fill:#b59b00;}.cls-12,.cls-13,.cls-4,.cls-9{fill:#fff;}.cls-5{fill:#907b00;}.cls-6{fill:#a0505a;}.cls-14,.cls-15,.cls-17,.cls-7{fill:none;}.cls-12,.cls-13,.cls-14,.cls-17,.cls-7{stroke:#423c52;}.cls-13,.cls-14,.cls-7{stroke-linecap:round;}.cls-12,.cls-13,.cls-14,.cls-15,.cls-17,.cls-7,.cls-9{stroke-miterlimit:10;}.cls-12,.cls-13,.cls-17,.cls-7,.cls-9{stroke-width:5px;}.cls-8{fill:#423c52;}.cls-15,.cls-9{stroke:#fe552f;}.cls-10{fill:#fe552f;}.cls-11{opacity:0.5;}.cls-14,.cls-15{stroke-width:10px;}.cls-16{fill:#eb7500;}.cls-18{fill:#e5f1ef;}</style></defs><g id="Layer_2" data-name="Layer 2"><g id="Слой_1" data-name="Слой 1"><g id="GROUND"><path class="cls-1" d="M346.87,1807.06c236.52-102.22,3505.77-17.22,3567.47,95.67,96.43,176.43-2280.95,233.57-2810.29,123.22-262.19-54.66,262.29-63.71,258.19-98.21C1351.71,1839.12,228.09,1858.39,346.87,1807.06Z"/><ellipse class="cls-1" cx="568.1" cy="1926.3" rx="264.59" ry="24.85"/></g><g id="PLANTS"><path class="cls-2" d="M1650.38,1763.6c-650.22-7.95-1210.65,3.32-1303.52,43.46-6.45,2.79-9.24,5.37-8.73,7.77-310.59-46.39-135.94-92.09-80.47-99.65,58-7.92-127.11-447.1,337.42-447.1,215.18,0,236.21,333.22,313.93,333.59,42.21.2,82.44-115.79,199.68-98.67,168.4,24.6,60.53,198.37,195.09,172S1412,1727.75,1412,1727.75C1578.13,1692.77,1635.58,1744.77,1650.38,1763.6Z"/><circle class="cls-2" cx="691.61" cy="1151.7" r="60"/><path class="cls-3" d="M3914.07,1902.29c-29.22-47.11-621.57-89.58-1312.47-115.28,71.58-185.24,382.26-71.46,382.26-71.46s122.62-305.21,479.88-249c293.73,46.21,296.77,319.28,296.77,319.28C3911.13,1793.59,3914.24,1890.65,3914.07,1902.29Z"/><circle class="cls-3" cx="3810.07" cy="1720.85" r="30"/><polygon class="cls-4" points="3073.55 2057.8 3040.37 2013.77 3089.48 2035.79 3035.77 1925.59 3118.01 2022.78 3193.62 1841.87 3159.16 2029.79 3209.59 2006.27 3177.21 2050.38 3073.55 2057.8"/><polygon class="cls-5" points="1026.48 1761.21 971.97 1720.7 1037.01 1740.95 998.52 1650.36 1067.53 1740.61 1067.53 1692.83 1089.09 1745.91 1148.49 1574.37 1118.67 1761.21 1026.48 1761.21"/><polygon class="cls-5" points="1128.14 1761.21 1186.54 1711.41 1153.8 1761.54 1128.14 1761.21"/></g><g id="_2_MAN" data-name="2 MAN"><g id="LEGS"><path class="cls-6" d="M3308.89,1788.22c-5.16-238.2-95.79-666.64-95.79-666.64s-227,219.74-268.28,262.08c-73.22,75,12.06,187.36-297.43,370.74l-205.16-154.15C2554.28,1483.14,2923.51,911,3017,797.46l419.08-150.73s68.13,57.83,74.32,227.11-20.65,439.73,57.8,588.37c44,83.28,21.46,221-6.83,326Z"/><path class="cls-7" d="M3405.06,646.73s68.13,57.83,74.32,227.11-20.65,439.73,57.8,588.37c44,83.28,21.46,221-6.83,326"/><line class="cls-7" x1="3213.1" y1="1121.57" x2="3169.75" y2="837.37"/><path class="cls-8" d="M3472.78,700.64,2919.66,993.28a40.85,40.85,0,0,1-42.4-1c61.31-89,112.34-161.57,139.72-194.82l419.08-150.73S3454.31,662.21,3472.78,700.64Z"/><path class="cls-7" d="M3347.55,766.89s33.7,72.56,131.91,105.74"/></g><g id="SHOES"><g id="LEFT"><path class="cls-9" d="M2647.39,1752.33c-66.76,53.37-122.91,89.54-122.91,89.54l-248.11-180.15s11.32-16.21,30-12.72c55.86,10.44,96.45,9.81,128.64-35.37q3.57-5,7.21-10.27Z"/><path class="cls-10" d="M2526.24,1843.15l-10,13.78a5.73,5.73,0,0,1-8,1.19l-50.31-36.53a5.74,5.74,0,0,1-1.35-8h0a5.74,5.74,0,0,0-1.36-8L2420,1780a5.73,5.73,0,0,0-8,1.19h0a5.74,5.74,0,0,1-8,1.18L2265.6,1682a5.74,5.74,0,0,1-1.36-8l10-13.78Z"/><polygon class="cls-10" points="2466.91 1679.13 2411.2 1638.69 2428.66 1621.85 2480.94 1659.81 2466.91 1679.13"/></g><g id="RIGHT"><path class="cls-9" d="M3559.28,1788.22c-22.2,82.41-45.88,144.67-45.88,144.67H3213.1s-.35-19.76,16.47-27.91c50.28-24.38,82.08-48.74,81.59-104.21q-.06-6.18-.19-12.55Z"/><path class="cls-10" d="M3515.53,1932.89v17a5.67,5.67,0,0,1-5.67,5.67H3449a5.67,5.67,0,0,1-5.67-5.67h0a5.68,5.68,0,0,0-5.68-5.68H3395a5.68,5.68,0,0,0-5.68,5.68h0a5.67,5.67,0,0,1-5.68,5.67H3216.21a5.67,5.67,0,0,1-5.68-5.67v-17Z"/><polygon class="cls-10" points="3374.13 1835.04 3306.7 1835.04 3310.85 1811.15 3374.13 1811.15 3374.13 1835.04"/></g></g><g id="T-SHIRT"><path class="cls-2" d="M3401.72,662.3,3017,797.46,2821,612.21c-10-9.46-16.11-3.29-17.45,10.41-4.07,41.73-.87,118.65-8.72,203.74H2574.51l7.17-269.65a305.6,305.6,0,0,1,150.58-255.29L3071.67,101.8C3196.27,28.52,3356.9,79.11,3417,210.57l91.6,200.29C3553.88,509.8,3504.38,626.24,3401.72,662.3Z"/><g class="cls-11"><path class="cls-4" d="M2614.18,427.5V826.36H2609v-388Q2611.48,432.87,2614.18,427.5Z"/><path class="cls-4" d="M2652.26,369.39v457h-5.18V375.8c.77-1,1.58-2,2.41-3S2651.32,370.51,2652.26,369.39Z"/><path class="cls-4" d="M2690.34,331.08V826.36h-5.18V335.54l1-.85Q2688.22,332.85,2690.34,331.08Z"/><path class="cls-4" d="M2728.42,303.72V826.36h-5.19V306.94C2724.94,305.85,2726.68,304.77,2728.42,303.72Z"/><polygon class="cls-4" points="2766.5 281.28 2766.5 826.36 2761.31 826.36 2761.31 284.33 2766.5 281.28"/><path class="cls-4" d="M2804.58,258.88V616.59a39.1,39.1,0,0,0-1,6q-.53,5.37-.89,11.5c-.12,1.69-.21,3.41-.3,5.19-.51,9.8-.82,20.83-1.07,32.89,0,1.71-.07,3.43-.12,5.19-.19,10.3-.37,21.31-.61,32.89,0,1.71-.07,3.44-.1,5.18-.23,10.55-.51,21.54-.89,32.9q-.09,2.39-.18,4.8V261.93Z"/><polygon class="cls-4" points="2842.66 236.49 2842.66 632.68 2837.47 627.78 2837.47 239.54 2842.66 236.49"/><polygon class="cls-4" points="2880.73 214.09 2880.73 668.67 2875.55 663.77 2875.55 217.14 2878.74 215.27 2880.73 214.09"/><polygon class="cls-4" points="2918.81 191.69 2918.81 704.67 2913.63 699.76 2913.63 194.74 2918.81 191.69"/><polygon class="cls-4" points="2956.88 169.31 2956.88 740.65 2951.7 735.75 2951.7 172.35 2956.88 169.31"/><polygon class="cls-4" points="2994.96 146.92 2994.96 776.65 2989.78 771.75 2989.78 149.97 2994.96 146.92"/><polygon class="cls-4" points="3033.04 124.52 3033.04 791.82 3027.85 793.63 3027.85 127.57 3033.04 124.52"/><polygon class="cls-4" points="3071.12 102.12 3071.12 778.44 3065.93 780.27 3065.93 105.17 3071.12 102.12"/><path class="cls-4" d="M3109.2,83.78V765.06l-5.19,1.83v-681C3105.73,85.12,3107.46,84.45,3109.2,83.78Z"/><path class="cls-4" d="M3147.27,72.81V751.69l-5.18,1.82V73.92C3143.81,73.53,3145.54,73.17,3147.27,72.81Z"/><path class="cls-4" d="M3185.35,68.27v670l-5.18,1.82V68.53C3181.89,68.42,3183.62,68.33,3185.35,68.27Z"/><path class="cls-4" d="M3223.43,69.75V724.93l-5.18,1.83V69.19C3220,69.35,3221.71,69.54,3223.43,69.75Z"/><path class="cls-4" d="M3261.51,77.31V711.55l-5.18,1.83V75.91C3258.06,76.35,3259.79,76.83,3261.51,77.31Z"/><path class="cls-4" d="M3299.58,91.56V698.18l-5.19,1.82V89.19C3296.14,90,3297.86,90.74,3299.58,91.56Z"/><path class="cls-4" d="M3337.66,114V684.8l-5.19,1.83V110.33C3334.21,111.5,3336,112.71,3337.66,114Z"/><path class="cls-4" d="M3375.74,147.86V671.42l-2.2.78-3,1V142.33c.64.66,1.27,1.31,1.89,2C3373.55,145.48,3374.65,146.66,3375.74,147.86Z"/><path class="cls-4" d="M3413.82,203.83V657.57c-1.72.75-3.45,1.46-5.19,2.15V193.89C3410.42,197.15,3412.16,200.46,3413.82,203.83Z"/><path class="cls-4" d="M3451.89,286.8V635.47q-2.55,1.93-5.18,3.76V275.46Z"/><path class="cls-4" d="M3490,370.06V601.23h-3.42c-.57.76-1.16,1.5-1.76,2.25V358.73l4.05,8.85Z"/><path class="cls-4" d="M2797.82,786.44c-.11,1.72-.21,3.45-.33,5.18H2576.11v-5.18Z"/><polygon class="cls-4" points="3048.36 786.44 3033.6 791.62 3010.8 791.62 3005.31 786.44 3048.36 786.44"/><path class="cls-4" d="M2799.57,748.36q-.09,2.39-.18,4.8v.38H2576.45l.13-5.18Z"/><polygon class="cls-4" points="3156.74 748.36 3147.28 751.69 3142.09 753.51 3142.09 753.54 2970.52 753.54 2965.03 748.36 3156.74 748.36"/><path class="cls-4" d="M2800.56,710.28c0,1.71-.07,3.44-.1,5.18h-223l.14-5.18Z"/><polygon class="cls-4" points="3265.14 710.28 3261.51 711.55 3256.33 713.38 3250.38 715.47 2930.23 715.47 2924.74 710.28 3265.14 710.28"/><path class="cls-4" d="M2801.29,672.2c0,1.71-.07,3.43-.12,5.19h-222.7l.14-5.19Z"/><polygon class="cls-4" points="3373.54 672.2 3370.55 673.25 3358.77 677.39 2889.95 677.39 2884.47 672.2 3373.54 672.2"/><path class="cls-4" d="M2802.66,634.12c-.12,1.69-.21,3.41-.3,5.19H2579.48l.14-5.19Z"/><path class="cls-4" d="M3453.67,634.12c-.59.46-1.19.9-1.78,1.35q-2.55,1.93-5.18,3.76v.08h-597l-5.49-5.19Z"/><path class="cls-4" d="M3490.44,596l-.47.64v4.55H2580.5l.14-5.19Z"/><path class="cls-4" d="M3511.55,558c-.7,1.75-1.44,3.47-2.22,5.19H2581.51l.14-5.19Z"/><path class="cls-4" d="M3522.62,519.89q-.47,2.6-1,5.18H2584.18c.22-1.73.46-3.46.72-5.18Z"/><path class="cls-4" d="M3525.45,487H2591.66q.68-2.6,1.42-5.18h932.29C3525.42,483.55,3525.45,485.27,3525.45,487Z"/><path class="cls-4" d="M3521.31,448.92h-916.9c.71-1.73,1.45-3.46,2.18-5.18h913.52C3520.53,445.46,3520.94,447.19,3521.31,448.92Z"/><path class="cls-4" d="M3508.63,410.85h-885.4c1-1.75,2-3.47,3.09-5.19h879.93Z"/><path class="cls-4" d="M3491.21,372.77H2649.49c.9-1.13,1.83-2.26,2.77-3.38.49-.61,1-1.21,1.52-1.81h835.06l1.13,2.48Z"/><path class="cls-4" d="M3473.8,334.69H2686.13q2.09-1.85,4.21-3.61c.62-.54,1.24-1.06,1.88-1.58h779.2Z"/><polygon class="cls-4" points="3456.38 296.61 2740.44 296.61 2749.25 291.42 3454.01 291.42 3456.38 296.61"/><polygon class="cls-4" points="3438.96 258.53 2805.18 258.53 2813.99 253.34 3436.6 253.34 3438.96 258.53"/><polygon class="cls-4" points="3421.55 220.45 2869.93 220.45 2875.55 217.14 2878.74 215.27 3419.18 215.27 3421.55 220.45"/><path class="cls-4" d="M3401.87,182.38H2934.65l8.81-5.18h455.06C3399.67,178.91,3400.78,180.64,3401.87,182.38Z"/><path class="cls-4" d="M3372.44,144.3h-373l8.81-5.18h359.17q1.6,1.59,3.17,3.21C3371.19,143,3371.82,143.64,3372.44,144.3Z"/><path class="cls-4" d="M3326.21,106.23H3064.14l1.79-1.06,5.19-3,.55-.32,1.3-.76h244.72C3320.56,102.71,3323.4,104.43,3326.21,106.23Z"/></g><line class="cls-7" x1="3270.21" y1="500.18" x2="3220.67" y2="373.56"/><line class="cls-7" x1="3044.83" y1="120.27" x2="3008.38" y2="409.12"/><line class="cls-7" x1="3008.38" y1="409.12" x2="2782.7" y2="274.44"/><line class="cls-7" x1="3007.34" y1="407.05" x2="3109.19" y2="625.42"/><circle class="cls-7" cx="3008.38" cy="488.65" r="12.96"/><circle class="cls-7" cx="3045.87" cy="574.5" r="12.96"/></g><g id="LEFT_HAND" data-name="LEFT HAND"><g id="HAND"><path class="cls-12" d="M2743.94,1155.63A150,150,0,0,1,2686,1261c-43.34,33.33-99.51,75.16-109.42,76-12,1-31.49-48.89-41.37-76.51a26.34,26.34,0,0,1,8.33-29.41l20.66-14.5,5.49-208.52,4.84-181.66h220.32Z"/><path class="cls-12" d="M2793.67,833.58l-11,70.41c.16-33.1-44-56.13-102.92-57-56.93-.82-103.46,23.19-107.27,54.7l2-75.35c.47-33.25,49.57-54.83,108.69-54S2794.16,800.33,2793.67,833.58Z"/><circle class="cls-13" cx="2605.93" cy="829.84" r="12.96"/></g><g id="SHOVEL"><path class="cls-12" d="M2108.18,1935.55h0c-61.41-44-72.57-134.42-25.2-204.09l79.84-120.9,235.86,170.37L2309,1894.71C2258,1961.21,2169.24,1979.26,2108.18,1935.55Z"/><line class="cls-14" x1="2734.81" y1="1060.5" x2="2285.35" y2="1699.64"/><path class="cls-15" d="M2962.06,1060.5H2734.81v-201c0-18.85,22.18-28.94,36.39-16.55l205.29,179C2991.78,1035.33,2982.35,1060.5,2962.06,1060.5Z"/><path class="cls-12" d="M2200.54,1818.73h0c-11.36-8-1.2-41.57,22.92-75.72l41.17-58.91,43.42,31.36-43,57.6C2240.36,1806.51,2211.84,1826.69,2200.54,1818.73Z"/></g><g id="FINGERS"><path class="cls-4" d="M2689,1208.42a19.91,19.91,0,0,1-28.57-8.31l-12.19-25.65a10.91,10.91,0,0,0-15.8-4.45l-84.64,56.22a30.34,30.34,0,0,0-11,37.57l26.61,61.81a17.53,17.53,0,0,0,26.94,6.85l114.09-93.84Z"/><path class="cls-7" d="M2689,1208.42a19.91,19.91,0,0,1-28.57-8.31l-12.19-25.65a10.91,10.91,0,0,0-15.8-4.45l-88.94,61a26.34,26.34,0,0,0-8.33,29.41c9.88,27.62,29.41,77.51,41.37,76.51,9.91-.82,66.08-42.65,109.42-76"/><path class="cls-7" d="M2606.43,1319.35c-17.2,0-37.5-44.32-45.31-76.53-2.65-10.92-.44-22.38,8.33-29.41"/><path class="cls-7" d="M2632.89,1300.94c-12,1-35.06-43.46-44.81-76.78-3.15-10.79-.43-22.38,8.33-29.41"/><path class="cls-7" d="M2664.71,1276.81c-12,1-31.82-43.07-41.37-76.51-3.09-10.8.36-23.26,9.12-30.29"/></g></g><g id="RIGHT_HAND" data-name="RIGHT HAND"><path class="cls-12" d="M3370.55,682.22,2916.32,995a40.85,40.85,0,0,1-51-3.77l-75.6-70.38a20.47,20.47,0,0,1-6.19-18.68l9.47-63a50.42,50.42,0,0,1,32.72-38.43l94.57-32.86,325.4-258.93h0a198.15,198.15,0,0,1,119.86,146.86Z"/><line class="cls-7" x1="2784.33" y1="912.45" x2="2837.28" y2="850.63"/><line class="cls-7" x1="2812.63" y1="940.14" x2="2865.59" y2="878.32"/><line class="cls-7" x1="2841.99" y1="968.85" x2="2894.94" y2="907.03"/><line class="cls-7" x1="2869.21" y1="992.4" x2="2922.17" y2="930.58"/><path class="cls-12" d="M3397.44,664l-56.38,38.53c25.05-21.62,12.72-70.83-25.33-115.81-36.79-43.46-85.95-61.82-112.21-44l55.61-45.27c25.38-21.49,76.92-2.32,115.11,42.81S3422.83,642.52,3397.44,664Z"/><circle class="cls-13" cx="3280.16" cy="519.77" r="12.96"/></g><g id="HEAD"><path id="HAIR" class="cls-16" d="M2804.34,202.57c66.18-17.55,54-45,67.27-55.57,19.58-15.6,37.36,12.53,42.65,22.16L2927.89,157c-.6-3.76-10.41-62.25-38.72-59.77-13.56,1.19-24,34.72-70.81,29.62-60.59-6.62-100.88,17.41-73.67,61C2750.82,197.7,2778.85,207,2804.34,202.57Z"/><g id="NECK"><polygon class="cls-4" points="2953.67 171.59 3007.34 407.05 2840.72 237.87 2953.67 171.59"/><path class="cls-8" d="M2949.31,208c10.67,59.75-14.42,109.34-29.47,110.26l-79.11-80.34,94.54-55.49Z"/></g><g id="HEAD-2" data-name="HEAD"><path class="cls-12" d="M2963.7,192.68a21.6,21.6,0,0,0,1.78-30.49l-4.81-5.41a21.62,21.62,0,0,0-30.5-1.78l-15.91,14.16c-5.28-9.63-23.06-37.76-42.64-22.16-13.24,10.55-1.09,38-67.28,55.57,0,0,32.55,63.25,40.23,63.25s22.3-5.48,22.3-5.48,25.1,29.88,31.81,29.88c15,0,48-41.78,48-83.09Z"/><path class="cls-7" d="M2843.84,204.14s14.62-6.95,30.34-5.85"/><ellipse class="cls-8" cx="2867.62" cy="220.62" rx="4.48" ry="8.42" transform="translate(334.82 1583.28) rotate(-32.68)"/><path class="cls-7" d="M2938.71,186.49c-4.7-7.25-2.86-16.81,4.12-21.33"/></g></g></g><g id="_1_MAN" data-name="1 MAN"><g id="LEGS-2" data-name="LEGS"><path id="LEFT-2" data-name="LEFT" class="cls-8" d="M605,1329h0l146.93-94.87a193.14,193.14,0,0,0,88.38-162.27V741.58c.82,64.26,10.59,121.27,26.47,171.81v0c25.93,82.51,68.1,147.78,114.15,199.28,89.86,100.49,194.48,148.55,221.86,169.84,0,0-9.45,81.9-131.76,149.64-80.49,44.58-214.59,100.13-306.19,142.19Z"/><g id="RIGHT-2" data-name="RIGHT"><path class="cls-5" d="M1753.69,1489.46l-271.54,111.83c-56.18-103.71-146.2-229.67-279.41-318.75-50-38.89-357.67-167-362.49-541,0,0,217.6,21.62,254.39-85.54,0,0,41.48,34.4,121.52,34.4,0,0-34.36,37.42,75,138.66C1441.68,968.41,1643.61,1144.46,1753.69,1489.46Z"/><path class="cls-7" d="M842.25,764.58s225.6,21.62,262.39-85.54"/><path class="cls-7" d="M1094.74,707.11s-35.94,64.75,73.44,166c150.5,139.31,352.43,315.36,462.51,660.36"/><path class="cls-7" d="M980.88,1112.7c-46-51.5-88.22-116.77-114.15-199.28v0h135.93S1068.7,1092,980.88,1112.7Z"/></g></g><g id="SHOES-2" data-name="SHOES"><g id="LEFT-3" data-name="LEFT"><path class="cls-8" d="M607.53,1792.16l-22.31,14.46a6.93,6.93,0,0,1-9.51-2.3L563.19,1785a6.93,6.93,0,0,1,1.79-9.62,6.63,6.63,0,0,0,3-5.63,7.28,7.28,0,0,0-1.19-4l-12.36-19.07a6.93,6.93,0,0,0-9.51-2.3,6.44,6.44,0,0,1-3.52,1,7.18,7.18,0,0,1-6-3.33l-12.52-19.32a6.93,6.93,0,0,1,1.79-9.62,6.64,6.64,0,0,0,3-5.63,7.3,7.3,0,0,0-1.19-4l-12.36-19.08a6.91,6.91,0,0,0-9.51-2.29,6.44,6.44,0,0,1-3.52,1,7.18,7.18,0,0,1-6-3.33l-12.52-19.32a6.92,6.92,0,0,1,1.79-9.62,6.64,6.64,0,0,0,3-5.63,7.28,7.28,0,0,0-1.19-4l-12.36-19.08a6.92,6.92,0,0,0-9.51-2.29,6.44,6.44,0,0,1-3.52,1,7.18,7.18,0,0,1-6-3.33l-12.52-19.32a6.93,6.93,0,0,1,1.79-9.62,6.65,6.65,0,0,0,3-5.63,7.29,7.29,0,0,0-1.2-4L433.47,1560a6.93,6.93,0,0,0-9.51-2.3,6.51,6.51,0,0,1-3.53,1,7.19,7.19,0,0,1-6-3.33l-12.52-19.33a6.93,6.93,0,0,1,1.8-9.62,6.64,6.64,0,0,0,3-5.63,7.3,7.3,0,0,0-1.19-4l-12.36-19.07a6.93,6.93,0,0,0-9.51-2.3,6.4,6.4,0,0,1-3.53,1,7.17,7.17,0,0,1-6-3.33l-12.52-19.33a6.91,6.91,0,0,1,1.79-9.61L400.8,1443l1.31,2.21a17,17,0,0,0-4.45,23.07Z"/><path class="cls-13" d="M397.66,1468.22a17,17,0,0,1,7-24.55l61.75-29.1c42.87-20.18,92.8-49.54,152.63-93.23l144,251.71c-4.16,2-8.33,4-12.58,5.89-201.25,89.18-91.65,174.4-144.28,211.25Z"/><line class="cls-7" x1="600.89" y1="1335.23" x2="742.34" y2="1582.51"/></g><g id="RIGHT-3" data-name="RIGHT"><path class="cls-8" d="M1948.15,1672.82l11.34,24a6.92,6.92,0,0,1-3.55,9.12l-20.82,9.83a6.92,6.92,0,0,1-9.29-3.07,6.71,6.71,0,0,0-6.14-3.77,7.45,7.45,0,0,0-3.16.71l-20.55,9.7a6.93,6.93,0,0,0-3.55,9.12,6.37,6.37,0,0,1,.62,2.75,7.14,7.14,0,0,1-4.17,6.37l-20.82,9.82a6.92,6.92,0,0,1-9.29-3.06,6.71,6.71,0,0,0-6.15-3.78,7.44,7.44,0,0,0-3.15.71l-20.56,9.7a6.94,6.94,0,0,0-3.55,9.12,6.41,6.41,0,0,1,.62,2.75,7.12,7.12,0,0,1-4.16,6.37l-20.83,9.83a6.92,6.92,0,0,1-9.29-3.07,6.71,6.71,0,0,0-6.14-3.77,7.41,7.41,0,0,0-3.15.71l-20.56,9.7a6.93,6.93,0,0,0-3.55,9.12,6.41,6.41,0,0,1,.62,2.75,7.14,7.14,0,0,1-4.16,6.37l-20.83,9.82a6.93,6.93,0,0,1-9.29-3.06,6.71,6.71,0,0,0-6.14-3.78,7.41,7.41,0,0,0-3.15.71l-20.56,9.7a6.92,6.92,0,0,0-3.54,9.12,6.47,6.47,0,0,1,.61,2.74,7.14,7.14,0,0,1-4.16,6.38l-20.83,9.82a6.93,6.93,0,0,1-9.29-3.06,6.71,6.71,0,0,0-6.13-3.78,7.32,7.32,0,0,0-3.16.72l-20.56,9.69a6.92,6.92,0,0,0-3.54,9.12,6.36,6.36,0,0,1,.61,2.75,7.11,7.11,0,0,1-4.16,6.37l-20.82,9.82a6.93,6.93,0,0,1-9.3-3.06L1574.43,1831l2.36-1a17,17,0,0,0,22.27,7.49Z"/><path class="cls-13" d="M1599.06,1837.49a17,17,0,0,1-23.39-10.21c-6.87-21.69-13.46-42.54-20.59-65.09-14.27-45.18-36.69-98.59-72-163.73l268.7-109c1.4,4.38,2.86,8.79,4.16,13.25,61.47,211.37,160.57,114.15,190,171.23Z"/><line class="cls-7" x1="1494.44" y1="1618.31" x2="1758.42" y2="1511.2"/></g></g><g id="HANDS"><g id="BACK_HAND" data-name="BACK HAND"><path class="cls-8" d="M1250.27,676h0a101.84,101.84,0,0,1-101.81-104l6.74-296.26L1297,272.36l53.54,283.83C1361.69,618.62,1313.7,676,1250.27,676Z"/><path class="cls-16" d="M1155.2,275.68l-1.45-75.59c-.33-19.44,14-38,33.22-40.63l104.8-11.58,5.2,124.48Z"/></g><g id="TREE"><path class="cls-2" d="M1245,191.69c352.08-12.82,460.21-154.23,560.52-151.63,62.85,1.63,67.35,270.81-19.18,268.57-82.77-2.14-160.58-98.69-449.77-112.46Z"/><path class="cls-17" d="M1245,191.69c352.08-12.82,460.21-154.23,560.52-151.63,62.85,1.63,67.35,270.81-19.18,268.57-82.77-2.14-160.58-98.69-449.77-112.46Z"/><line class="cls-17" x1="1827.03" y1="53.11" x2="1824.7" y2="286.19"/><line class="cls-17" x1="1800.01" y1="40.06" x2="1797.33" y2="307.36"/><line class="cls-17" x1="1772.82" y1="43.83" x2="1770.18" y2="307.06"/><line class="cls-17" x1="1745.58" y1="52.42" x2="1743.1" y2="300.09"/><line class="cls-17" x1="1718.31" y1="64.07" x2="1716.05" y2="289.7"/><line class="cls-17" x1="1691.03" y1="76.73" x2="1689.01" y2="277.97"/><line class="cls-17" x1="1663.73" y1="90.93" x2="1661.98" y2="266.25"/><line class="cls-17" x1="1636.46" y1="103" x2="1634.93" y2="255.21"/><line class="cls-17" x1="1609.19" y1="114.63" x2="1607.88" y2="245.16"/><line class="cls-17" x1="1581.92" y1="125.78" x2="1580.82" y2="236.19"/><line class="cls-17" x1="1554.66" y1="136.13" x2="1553.74" y2="228.29"/><line class="cls-17" x1="1527.42" y1="145.18" x2="1526.66" y2="221.42"/><line class="cls-17" x1="1500.18" y1="153.42" x2="1499.56" y2="215.49"/><line class="cls-17" x1="1472.96" y1="160.74" x2="1472.46" y2="210.45"/><line class="cls-17" x1="1445.74" y1="167.18" x2="1445.35" y2="206.21"/><line class="cls-17" x1="1418.53" y1="172.78" x2="1418.23" y2="202.72"/><line class="cls-17" x1="1391.33" y1="177.59" x2="1391.1" y2="199.92"/><line class="cls-17" x1="1364.13" y1="181.65" x2="1363.97" y2="197.76"/><line class="cls-17" x1="1336.95" y1="185.01" x2="1336.83" y2="196.17"/><line class="cls-17" x1="1718.32" y1="63.33" x2="1833.95" y2="64.48"/><line class="cls-17" x1="1663.74" y1="89.94" x2="1843.68" y2="91.74"/><line class="cls-17" x1="1608.41" y1="116.54" x2="1848.96" y2="118.94"/><line class="cls-17" x1="1534.41" y1="142.95" x2="1851.56" y2="146.12"/><line class="cls-17" x1="1437.74" y1="169.14" x2="1852.02" y2="173.28"/><line class="cls-17" x1="1309.59" y1="195.01" x2="1850.43" y2="200.42"/><line class="cls-17" x1="1539.11" y1="224.46" x2="1846.55" y2="227.53"/><line class="cls-17" x1="1627.91" y1="252.5" x2="1839.67" y2="254.62"/><line class="cls-17" x1="1694.35" y1="280.32" x2="1827.64" y2="281.65"/><path class="cls-17" d="M548.55,172.22S721,268.7,868.11,243"/><path class="cls-17" d="M427.25,457.77s96.3-137.46,289.38-179.26"/><path class="cls-17" d="M220.38,351s95.26,43.62,236,1.91"/><path class="cls-17" d="M1245,191.69c-30.13.4-402.66,2.18-1163.13,291.28"/><path class="cls-8" d="M1606.05,247.51c-54.42-19-124.8-36.9-221.61-45.17l-3.11-.67s7.77-17.91,17.5-28.33a920.06,920.06,0,0,0,165.54-43.9Z"/><path class="cls-3" d="M482.45,118.85s53.65-5.55,89.42,67.65C571.87,186.5,509.42,187.54,482.45,118.85Z"/><path class="cls-3" d="M0,530.31s13.43-66.57,98.25-56.22C98.25,474.09,77.27,547.71,0,530.31Z"/><path class="cls-3" d="M357.83,490.67s8.54-67.37,93.9-63.22C451.73,427.45,436.15,502.4,357.83,490.67Z"/><path class="cls-8" d="M466.62,503.67s-30.95-42.78,19.7-85.79C486.32,417.88,517.31,468.7,466.62,503.67Z"/><path class="cls-3" d="M499.11,504.52s-44.57-28.3-13.4-87C485.71,417.54,533.29,453.29,499.11,504.52Z"/><path class="cls-8" d="M622.51,161.14s51.54-4,75.74,65.49C698.25,226.63,639,226.15,622.51,161.14Z"/><path class="cls-3" d="M645.41,129.21s57.88,16.35,52.93,99.36C698.34,228.57,634.06,204.45,645.41,129.21Z"/><path class="cls-8" d="M532,226.17s25.93-39.63,89-22.25C621,203.92,589.06,249.29,532,226.17Z"/><path class="cls-8" d="M189.25,502.55s3.68-48.82,73-71.11C262.25,431.44,255.86,488.67,189.25,502.55Z"/><path class="cls-3" d="M114.61,408.06s42.31-24.63,100,19.86C214.58,427.92,163.8,455.08,114.61,408.06Z"/><path class="cls-8" d="M181.55,357.51s37.83-31.08,101.86,3.61C283.41,361.12,237.63,396.06,181.55,357.51Z"/><path class="cls-3" d="M189.88,286.58s62-7,93.69,75.59C283.57,362.17,212.13,364.14,189.88,286.58Z"/></g><g id="FINGERS-2" data-name="FINGERS"><path class="cls-16" d="M1195.6,193.1l3-24.26c1-4.37,7.27-9,13.29-9.81l92.42-12c13.45-1.74,21.89,4.09,20,13.81l-6.83,40.35c-1.68,10-12,18.08-24,19.17l-112.63,9.71c-6.62.61.79-31.31,1.76-36.19Z"/><path class="cls-7" d="M1195.6,192.1l-7.19.42a11.83,11.83,0,0,0-10.51,9.83l-2.42,20.59c-1,5.08,3.07,8.29,9.94,7.72,46.52-3.88,113.31-9.69,121.87-13.68,11.22-5.21,15.9-39.86,17.62-58.59.67-7.18-5.53-11.56-15.41-10.94"/><line class="cls-7" x1="1309.49" y1="147.45" x2="1188.39" y2="161.92"/><path class="cls-7" d="M1275.27,222.33c15.76-8.22,22.61-40.41,21.23-60.49-.47-6.8-5.53-11.56-15.42-10.93"/><path class="cls-7" d="M1246.16,224.65c11.89-4.35,20.6-37.81,20.7-59.38,0-7-5.53-11.56-15.42-10.94"/><path class="cls-7" d="M1210.63,228.63c11.21-5.21,17.73-37.07,17.62-58.6,0-6.95-5.72-12.18-16.38-11"/><line class="cls-7" x1="1195.6" y1="192.1" x2="1193.22" y2="207.58"/></g><g id="FRONT_HAND" data-name="FRONT HAND"><path class="cls-10" d="M1531.44,244.45,1378.1,585.21a177.23,177.23,0,0,1-161.94,105.23c-80,0-121.52-34.4-121.52-34.4-36.79,107.16-254.39,85.54-254.39,85.54V376.07A162.74,162.74,0,0,1,1003,213.32h4.22c93.47,0,168.57,75.11,168.57,167.76v34.64l176.88-207Z"/><path class="cls-8" d="M1216.16,690.44c-129.46,0-247.83-125.22-269.56-203,0,0,25.82,236.9,269.56,254.14Z"/><line class="cls-7" x1="1185.84" y1="400.3" x2="1151.19" y2="445.82"/><path class="cls-16" d="M1530.44,245.45l-178.73-35.78s38.42-75.32,54.25-82.14c10.24-4.4,64.18-12.42,108-16.62,28.68-2.75,53.06-3.88,58.07-1.29,1.06.55,1.67,1.81,1.92,3.66h0l-.57,4.45c-.86,6.79-6.91,9.94-13.52,11.76-9.87,2.71-16.09,3.54-16.71,3.81-5.58,2.4-16,19.22-29.26,38.78,9.42,5.53,19.43,14.12,23.21,24.43a46.91,46.91,0,0,1,1.35,28.23Z"/><path class="cls-7" d="M1402,171c11.64-17.66,23.44-42.9,31.4-46.33,4.16-1.79,23.07-4.71,39.8-6.65"/><path class="cls-7" d="M1436.79,171c13.07-19.84,26.56-48.33,35.52-52.18,4.66-2,24.28-4.62,40.64-5.67"/><path class="cls-7" d="M1473.71,171c13.07-19.84,29.34-53,38.29-56.9,4.67-2,17.79-5,34.17-5.58a166.17,166.17,0,0,1,25.89,1.07l-1,7.82c-.71,5.6-4.9,8.72-10.21,10.64-6.68,2.42-15.17,5.77-17.66,6.84-9,3.85-22.93,27.64-29.85,38h0c20.73,10.67,34.05,34.81,16.15,69.69l-175.79-32.94"/></g></g><g id="HEAD-3" data-name="HEAD"><g id="HAT"><path class="cls-8" d="M1136.57,110.47C1058.46,128.1,991.32,136.71,970,132.61c-4.16-.8-6.57-2.09-7-3.88a2.31,2.31,0,0,1,0-1.11c2.31-11.55,74.2-36.54,164.53-56.93,88.39-20,162.72-28.35,172.49-19.87a0,0,0,0,1,0,0,2.92,2.92,0,0,1,1,1.51l0,.06C1303.58,63.41,1229.92,89.39,1136.57,110.47Z"/><path class="cls-13" d="M1299.21,53.43C1289.45,45,1216,51.61,1127.6,71.57,1037.27,91.94,968,116.94,965.67,128.49c1.27-25.61,96.14-65.74,96.14-65.74l3.29-31A12.37,12.37,0,0,1,1074.63,21l78.91-18.16a12.37,12.37,0,0,1,12.81,4.8L1186.14,35C1271.06,31.36,1295,48.11,1299.21,53.43Z"/><path class="cls-7" d="M1186.14,35c-18.57,3.21-38.67,6.88-59.54,11.6-23.24,5.24-45.12,10.64-64.79,16.18"/></g><g id="NECK-2" data-name="NECK"><path class="cls-16" d="M1159.14,152.51,1125,236.25l-7.33,18h0a168.4,168.4,0,0,0-110.48-40.92H1003a162.12,162.12,0,0,0-69.34,15.47l.17-.18,60.35-64.53,61.5-65.74Z"/><path class="cls-8" d="M1159.15,152.51l-33.92,83.23c-11.91-21.05-24.09-49.29-24.4-66.84-.2-10.76,0-33.47-.54-47.15Z"/></g><path id="BEARD" class="cls-1" d="M1080.75,89.48h0s18.51-5,40.71-10.44c0,0,0,.1,0,.23-.39,2.27-3.41,20.29-2.66,35.47.43,8.78,2.13,16.61,6.31,19.9,11.93,9.38,54.61,8.53,64.48,5.69,0,0,3.7,50.27-4,51.41s-72.51-16.27-81-33.24c-5.86-11.74-3.77-26.47-4.32-40.15l.27-8.27A20,20,0,0,0,1080.75,89.48Z"/><g id="EAR"><path class="cls-17" d="M1100.44,139.59h-26.75c-14.13,0-25-10-25-22.31V102.09"/><path class="cls-16" d="M1068.33,89.41h13.49A18.63,18.63,0,0,1,1100.44,108v28a0,0,0,0,1,0,0H1074a23.17,23.17,0,0,1-23.17-23.17v-5.91a17.54,17.54,0,0,1,17.54-17.54Z"/><path class="cls-7" d="M1091,117.09c0-9.16-9.16-16.59-20.47-16.59"/></g><g id="FACE"><path class="cls-16" d="M1209.71,131.23a41.41,41.41,0,0,1-19.83,9l-.34.06c-9.87,2.84-52.55,3.69-64.48-5.69-4.18-3.29-5.88-11.12-6.31-19.9-.75-15.18,2.27-33.2,2.66-35.47q7.27-1.74,14.79-3.43c18.39-4.16,36-7.71,52.36-10.61C1188.56,65.23,1205.69,89.37,1209.71,131.23Z"/><path class="cls-7" d="M1149.27,98.28a34.56,34.56,0,0,1,25.85-11.36"/><ellipse class="cls-8" cx="1166.2" cy="105" rx="4.4" ry="7.19"/></g><g id="COLLAR"><path class="cls-18" d="M1125.49,236.77l-7.81,17.47h0a168.4,168.4,0,0,0-110.48-40.92H1003a162.12,162.12,0,0,0-69.34,15.47l60.1-64.74C1063.22,168.91,1125.49,236.77,1125.49,236.77Z"/><path class="cls-7" d="M929.74,230.69A162.1,162.1,0,0,1,1003,213.32h4.22a168.4,168.4,0,0,1,110.48,40.92"/></g></g></g><g id="GROUND-2" data-name="GROUND"><ellipse class="cls-8" cx="2295.54" cy="2029.8" rx="54.51" ry="17.36"/><ellipse class="cls-8" cx="2183.49" cy="2012.44" rx="27.25" ry="11.72"/><path class="cls-8" d="M1757.86,1981.15c0-.33,0-.66,0-1,0-27.12,24.22-49.1,54.08-49.1a57.68,57.68,0,0,1,30.45,8.52,80.25,80.25,0,0,1,124.81-62.33c7.58-46.53,54.6-82.35,111.45-82.35,62.14,0,112.53,42.81,112.53,95.6a81.93,81.93,0,0,1-1,12.5,76.51,76.51,0,0,1,11.41-.86,74.73,74.73,0,0,1,66.91,41.41l-1.42.34h56.16a82.27,82.27,0,0,1,159.16-11.23,82.32,82.32,0,0,1,115.07,44.21v4.28Z"/></g></g></g></svg>