<svg version="1.1" id="Layer_1" xmlns="http://www.w3.org/2000/svg"
	xmlns:xlink="http://www.w3.org/1999/xlink" x="0px" y="0px"
	width="100%" viewBox="0 0 512 512" enable-background="new 0 0 512 512" xml:space="preserve">
<path fill="none" opacity="1.000000" stroke="none" 
	d="
M276.000000,513.000000 
	C184.022324,513.000000 92.544647,513.000000 1.033484,513.000000 
	C1.033484,342.397308 1.033484,171.794586 1.033484,1.095938 
	C171.561035,1.095938 342.122131,1.095938 512.841614,1.095938 
	C512.841614,171.666550 512.841614,342.333252 512.841614,513.000000 
	C434.127899,513.000000 355.313934,513.000000 276.000000,513.000000 
M54.247520,291.395874 
	C54.165245,302.786285 54.070248,314.176697 54.041653,325.567230 
	C54.040344,326.087769 54.636951,326.609802 54.987564,328.039215 
	C54.986134,331.198517 54.487377,334.452423 55.067272,337.501129 
	C57.950603,352.659943 61.117977,367.764709 63.858162,383.578766 
	C60.241264,395.012970 55.911137,406.280273 53.187248,417.923401 
	C49.750488,432.613770 47.259575,447.557129 45.066204,462.494965 
	C43.703674,471.774353 43.270168,481.239410 43.113895,490.632690 
	C42.960209,499.870422 51.604656,505.647522 59.214603,501.785248 
	C64.906822,498.896240 65.461761,493.196381 65.943718,487.762085 
	C67.079727,474.952881 66.932686,461.927979 69.260033,449.352234 
	C72.147598,433.749390 77.007973,418.511658 81.793213,403.075623 
	C106.391380,410.739258 131.630615,415.589661 157.272232,416.740326 
	C180.515457,417.783356 203.837433,417.740540 226.996170,413.221466 
	C246.493393,409.416840 265.440155,404.106903 283.371368,395.781677 
	C314.931946,381.128571 341.985535,360.516113 364.247650,333.509644 
	C376.617432,318.503693 387.530212,302.602295 396.711121,285.575104 
	C409.074402,262.645691 418.879700,238.589752 426.762665,213.721558 
	C437.465027,179.959091 446.222046,145.720413 452.887390,110.947441 
	C453.438263,108.073647 452.878143,104.986893 452.994812,101.206291 
	C454.663361,90.926033 456.593353,80.679024 457.906982,70.353615 
	C458.758270,63.662354 458.927612,56.859428 459.016449,50.101467 
	C459.181335,37.559349 459.063721,25.013523 459.063721,12.299769 
	C453.976349,11.891422 448.420959,11.058206 442.869446,11.082913 
	C432.275360,11.130066 421.677490,11.538970 411.092346,12.035152 
	C400.389923,12.536832 389.667542,12.995808 379.014709,14.074223 
	C366.171509,15.374375 353.380920,17.223797 340.588104,18.984612 
	C317.797882,22.121477 295.573456,27.770657 273.700348,34.754204 
	C247.967346,42.970104 223.150986,53.321354 199.756378,66.999504 
	C172.190353,83.116570 147.220215,102.381744 126.677635,126.950050 
	C116.715240,138.864761 107.048218,151.076035 98.005287,163.696075 
	C88.891411,176.415100 81.414688,190.178909 75.280785,205.275772 
	C63.474003,232.619995 55.930111,260.975800 54.247520,291.395874 
z"/>
<path fill="#6CC48F" opacity="1.000000" stroke="none" 
	d="
M75.890228,204.907120 
	C81.414688,190.178909 88.891411,176.415100 98.005287,163.696075 
	C107.048218,151.076035 116.715240,138.864761 126.677635,126.950050 
	C147.220215,102.381744 172.190353,83.116570 199.756378,66.999504 
	C223.150986,53.321354 247.967346,42.970104 273.700348,34.754204 
	C295.573456,27.770657 317.797882,22.121477 340.588104,18.984612 
	C353.380920,17.223797 366.171509,15.374375 379.014709,14.074223 
	C389.667542,12.995808 400.389923,12.536832 411.092346,12.035152 
	C421.677490,11.538970 432.275360,11.130066 442.869446,11.082913 
	C448.420959,11.058206 453.976349,11.891422 459.063721,12.299769 
	C459.063721,25.013523 459.181335,37.559349 459.016449,50.101467 
	C458.927612,56.859428 458.758270,63.662354 457.906982,70.353615 
	C456.593353,80.679024 454.663361,90.926033 452.717102,101.894432 
	C445.948669,120.585396 440.031433,138.820892 432.842743,156.540558 
	C419.602448,189.176987 401.802582,219.198776 377.999207,245.333527 
	C351.453217,274.479492 319.411407,295.419006 281.930847,307.802185 
	C261.630371,314.509216 240.860107,318.986420 219.439453,320.301605 
	C198.604004,321.580841 177.776764,322.242523 157.519775,316.245483 
	C148.479034,313.568970 139.871628,309.428650 131.146149,305.624512 
	C139.834244,294.718262 147.935089,283.673340 157.141602,273.643280 
	C196.317734,230.962723 242.502686,197.363602 293.484192,170.223160 
	C306.855194,163.104980 320.674835,156.825867 334.329285,150.246185 
	C338.285095,148.339996 341.520935,145.952179 342.016296,141.221786 
	C342.443878,137.138474 341.303680,133.599472 337.870392,131.099915 
	C333.690338,128.056732 329.464996,128.945969 325.114960,130.909378 
	C242.281830,168.296539 169.646271,219.035400 113.654846,291.928375 
	C108.531845,286.852570 103.215080,282.268860 99.031624,276.815735 
	C82.802162,255.660507 75.235092,231.570297 75.890228,204.907120 
z"/>
<path fill="#45A186" opacity="1.000000" stroke="none" 
	d="
M131.067566,305.952667 
	C139.871628,309.428650 148.479034,313.568970 157.519775,316.245483 
	C177.776764,322.242523 198.604004,321.580841 219.439453,320.301605 
	C240.860107,318.986420 261.630371,314.509216 281.930847,307.802185 
	C319.411407,295.419006 351.453217,274.479492 377.999207,245.333527 
	C401.802582,219.198776 419.602448,189.176987 432.842743,156.540558 
	C440.031433,138.820892 445.948669,120.585396 452.636780,102.290833 
	C452.878143,104.986893 453.438263,108.073647 452.887390,110.947441 
	C446.222046,145.720413 437.465027,179.959091 426.762665,213.721558 
	C418.879700,238.589752 409.074402,262.645691 396.711121,285.575104 
	C387.530212,302.602295 376.617432,318.503693 364.247650,333.509644 
	C341.985535,360.516113 314.931946,381.128571 283.371368,395.781677 
	C265.440155,404.106903 246.493393,409.416840 226.996170,413.221466 
	C203.837433,417.740540 180.515457,417.783356 157.272232,416.740326 
	C131.630615,415.589661 106.391380,410.739258 81.390404,402.688232 
	C81.383842,400.521667 81.616379,398.686707 82.201241,396.971893 
	C89.317894,376.106506 98.273277,356.036285 109.724876,337.213409 
	C116.273705,326.449188 123.917038,316.350830 131.067566,305.952667 
z"/>
<path fill="#347A65" opacity="1.000000" stroke="none" 
	d="
M131.146149,305.624512 
	C123.917038,316.350830 116.273705,326.449188 109.724876,337.213409 
	C98.273277,356.036285 89.317894,376.106506 82.201241,396.971893 
	C81.616379,398.686707 81.383842,400.521667 81.001892,402.708496 
	C77.007973,418.511658 72.147598,433.749390 69.260033,449.352234 
	C66.932686,461.927979 67.079727,474.952881 65.943718,487.762085 
	C65.461761,493.196381 64.906822,498.896240 59.214603,501.785248 
	C51.604656,505.647522 42.960209,499.870422 43.113895,490.632690 
	C43.270168,481.239410 43.703674,471.774353 45.066204,462.494965 
	C47.259575,447.557129 49.750488,432.613770 53.187248,417.923401 
	C55.911137,406.280273 60.241264,395.012970 64.210098,382.951294 
	C76.654953,349.825714 93.550041,319.955688 113.981689,292.021088 
	C169.646271,219.035400 242.281830,168.296539 325.114960,130.909378 
	C329.464996,128.945969 333.690338,128.056732 337.870392,131.099915 
	C341.303680,133.599472 342.443878,137.138474 342.016296,141.221786 
	C341.520935,145.952179 338.285095,148.339996 334.329285,150.246185 
	C320.674835,156.825867 306.855194,163.104980 293.484192,170.223160 
	C242.502686,197.363602 196.317734,230.962723 157.141602,273.643280 
	C147.935089,283.673340 139.834244,294.718262 131.146149,305.624512 
z"/>
<path fill="#45A186" opacity="1.000000" stroke="none" 
	d="
M113.654846,291.928375 
	C93.550041,319.955688 76.654953,349.825714 64.373680,382.606140 
	C61.117977,367.764709 57.950603,352.659943 55.067272,337.501129 
	C54.487377,334.452423 54.986134,331.198517 54.987099,327.108459 
	C54.979092,314.415985 54.971558,302.654236 54.964020,290.892517 
	C55.930111,260.975800 63.474003,232.619995 75.585510,205.091446 
	C75.235092,231.570297 82.802162,255.660507 99.031624,276.815735 
	C103.215080,282.268860 108.531845,286.852570 113.654846,291.928375 
z"/>
<path fill="#54B08A" opacity="1.000000" stroke="none" 
	d="
M54.605774,291.144196 
	C54.971558,302.654236 54.979092,314.415985 54.970856,326.654419 
	C54.636951,326.609802 54.040344,326.087769 54.041653,325.567230 
	C54.070248,314.176697 54.165245,302.786285 54.605774,291.144196 
z"/>
</svg>